<?xml version="1.0" standalone="no"?>
<!DOCTYPE svg PUBLIC "-//W3C//DTD SVG 20010904//EN"
 "http://www.w3.org/TR/2001/REC-SVG-20010904/DTD/svg10.dtd">
<svg version="1.0" xmlns="http://www.w3.org/2000/svg"
 width="300.000000pt" height="120.000000pt" viewBox="0 0 300.000000 120.000000"
 preserveAspectRatio="xMidYMid meet">
<g transform="translate(0.000000,120.000000) scale(0.050000,-0.050000)"
fill="#000c1a" stroke="none">
<path d="M187 2189 c-5 -12 91 -301 213 -641 122 -340 277 -771 344 -958 154
-430 130 -410 473 -410 323 1 301 -11 371 190 69 199 408 1147 512 1430 120
329 127 353 113 389 -9 25 -28 31 -68 23 -30 -6 -163 -21 -295 -33 -133 -12
-251 -33 -265 -46 -23 -23 -153 -375 -312 -848 -34 -102 -67 -185 -72 -185 -6
0 -87 222 -181 493 -93 271 -183 509 -200 529 -37 45 -618 106 -633 67z"/>
<path d="M2240 930 l0 -730 230 0 230 0 0 730 0 730 -230 0 -230 0 0 -730z"/>
<path d="M3020 929 l0 -732 455 7 c508 7 589 25 721 162 246 256 249 836 6
1090 -170 177 -276 204 -827 204 l-355 0 0 -731z m736 360 c124 -49 154 -122
154 -369 0 -317 -38 -369 -288 -393 l-142 -13 0 403 0 403 100 0 c54 0 134
-14 176 -31z"/>
<path d="M4620 930 l0 -730 620 0 620 0 0 160 0 160 -390 0 -390 0 0 150 0
150 350 0 350 0 0 150 0 150 -350 0 -350 0 0 110 0 109 375 6 375 5 0 150 0
150 -605 5 -605 6 0 -731z"/>
</g>
</svg>
