<?xml version="1.0" encoding="UTF-8" standalone="no" ?>
<!DOCTYPE svg PUBLIC "-//W3C//DTD SVG 1.1//EN" "http://www.w3.org/Graphics/SVG/1.1/DTD/svg11.dtd">
<svg xmlns="http://www.w3.org/2000/svg" xmlns:xlink="http://www.w3.org/1999/xlink" version="1.1" width="1162" height="457" viewBox="0 0 1162 457" xml:space="preserve">
<desc>Created with Fabric.js 3.6.3</desc>
<defs>
</defs>
<g transform="matrix(3.04 0 0 3.04 581.67 226.29)"  >
<linearGradient id="SVGID_784" gradientUnits="userSpaceOnUse" gradientTransform="matrix(1 0 0 1 51.01 42.33)"  x1="114.61298363552726" y1="5.993899861596859" x2="267.4302951495636" y2="143.85359667832458">
<stop offset="0%" style="stop-color:rgba(58, 105, 138, 1);"/>
<stop offset="86.778%" style="stop-color:rgba(44, 79, 106, 1);"/>
<stop offset="100%" style="stop-color:rgba(98, 150, 189, 1);"/>
</linearGradient>
<path style="stroke: none; stroke-width: 1; stroke-dasharray: none; stroke-linecap: butt; stroke-dashoffset: 0; stroke-linejoin: miter; stroke-miterlimit: 4; fill: url(#SVGID_784); fill-rule: evenodd; opacity: 1;"  transform=" translate(-242.03, -117.26)" d="M 116.5 43.008 C 108.348 44.245 98.987 46.974 93.571 49.693 C 67.659 62.701 51.029 89.115 51.007 117.303 C 50.984 146.544 69.253 174.749 95.505 186.002 C 109.759 192.112 129.49 193.908 143.936 190.411 C 170.56 183.966 192.721 161.79 199.374 134.936 C 201.514 126.296 201.522 108.757 199.39 100.064 C 196.043 86.421 187.342 71.627 177.103 62.172 C 161.388 47.66 136.892 39.914 116.5 43.008 M 142.303 47.613 C 162.122 52.055 179.191 64.999 189.473 83.386 C 194.027 91.529 198 106.903 197.999 116.378 C 197.998 129.02 194.022 144.31 188.28 153.758 C 171.552 181.281 140.247 194.439 109.201 186.996 C 88.791 182.104 72.768 169.751 62.736 151.177 C 52.028 131.353 51.793 105.293 62.135 84.701 C 76.544 56.011 110.233 40.426 142.303 47.613 M 107 50.309 C 83.32 57.61 66.082 74.677 58.832 98 C 55.809 107.722 55.582 126.169 58.37 135.5 C 65.905 160.715 86.219 180.13 110.788 185.596 C 120.147 187.678 138.918 187.113 146.5 184.521 C 165.316 178.088 180.07 165.593 188.444 149 C 194.391 137.214 195.27 133.038 195.388 116 C 195.489 101.549 193.681 94.601 186.674 82.5 C 181.856 74.179 169.757 61.859 161.809 57.179 C 150.829 50.714 143.041 48.673 128 48.316 C 116.156 48.036 113.58 48.28 107 50.309 M 206.711 59.311 C 206.434 60.032 208.386 71.394 211.049 84.561 C 221.449 135.985 227.007 162.34 227.571 162.908 C 227.896 163.233 233.891 163.647 240.895 163.826 C 251.026 164.085 253.872 163.859 254.818 162.719 C 256.054 161.23 276 65.008 276 60.537 L 276 58 L 266.078 58 L 256.155 58 L 255.133 61.25 C 253.338 66.954 243 130.45 243 135.767 C 243 141.596 241.336 143.716 240.638 138.778 C 237.713 118.092 227.693 60.336 226.853 59.323 C 225.31 57.464 207.424 57.453 206.711 59.311 M 280.47 60.262 C 280.158 61.506 280.037 65.893 280.201 70.012 L 280.5 77.5 L 287.988 77.799 C 300.057 78.28 299.915 78.385 299.895 68.913 C 299.885 64.475 299.631 60.203 299.331 59.421 C 298.917 58.341 296.66 58 289.912 58 C 281.53 58 281.007 58.125 280.47 60.262 M 346.642 59.75 C 346.37 60.712 346.227 68.025 346.324 76 L 346.5 90.501 L 342.882 88.711 C 340.724 87.644 335.774 86.675 330.619 86.311 L 321.975 85.701 L 317.978 89.903 C 310.096 98.188 306 109.865 306 124.05 C 306 137.882 310.295 151.57 317.45 160.539 C 319.796 163.479 319.883 163.499 329.656 163.372 C 337.273 163.273 340.507 162.78 343.951 161.192 L 348.401 159.141 L 350.596 161.509 C 352.497 163.56 353.615 163.851 358.938 163.679 C 363.137 163.544 365.377 163.009 366.006 161.99 C 367.344 159.828 367.32 62.467 365.982 59.966 C 365.057 58.237 363.856 58 356.032 58 C 348.413 58 347.064 58.251 346.642 59.75 M 101.644 81.195 C 110.212 84.007 108.016 84.788 97.983 82.496 C 85.474 79.639 80.193 81.873 75.675 91.932 C 73.515 96.741 72.839 106.239 74.536 107.936 C 75.155 108.555 75.5 106.087 75.5 101.043 C 75.5 93.752 75.723 92.909 78.597 89.343 C 82.364 84.669 87.694 82.623 93.244 83.723 L 97.165 84.5 L 92.685 87.657 C 87.399 91.382 80.32 100.398 78.961 105.136 C 78.432 106.979 77.962 110.965 77.917 113.993 L 77.833 119.5 L 75.183 114 C 70.767 104.837 71.453 92.318 76.769 85.058 C 81.327 78.833 90.235 77.45 101.644 81.195 M 161.5 83.11 C 159.3 83.61 156.055 84.783 154.289 85.716 C 149.92 88.025 148.941 86.616 153.137 84.058 C 155.317 82.729 158.083 82.042 161 82.104 L 165.5 82.201 L 161.5 83.11 M 143 86.388 C 154.583 92.307 167.311 110.243 167.442 120.831 L 167.5 125.5 L 159.25 126.566 C 154.713 127.152 151 127.321 151 126.941 C 151 125.94 156.453 125.002 162.375 124.985 C 165.194 124.976 167.05 124.639 166.5 124.235 C 165.95 123.831 165.438 122.075 165.362 120.334 C 164.983 111.665 151.815 94.483 141.067 88.633 C 128.409 81.744 108.455 83.703 98.76 92.787 C 94.828 96.472 94.295 94.872 98.037 90.611 C 102.995 84.964 110.58 82.943 125.5 83.295 C 136.38 83.551 138.014 83.839 143 86.388 M 168.938 87.823 C 174.275 91.763 175.496 94.601 175.498 103.058 C 175.499 108.47 175.104 111.127 174.25 111.456 C 173.563 111.721 173 111.258 173 110.429 C 173 107.121 168.387 100.177 162.229 94.215 C 158.658 90.758 155.909 87.787 156.119 87.612 C 159.687 84.644 164.744 84.727 168.938 87.823 M 281.75 87.08 C 280.133 88.022 280 90.915 280 125.074 L 280 162.05 L 282.565 163.025 C 285.866 164.28 294.134 164.28 297.435 163.025 L 300 162.05 L 300 125 L 300 87.95 L 297.435 86.975 C 294.095 85.706 283.994 85.773 281.75 87.08 M 392.34 86.694 C 389.58 87.233 380.827 96.456 378.221 101.573 C 371.228 115.301 371.337 135.149 378.481 148.963 C 381.361 154.533 388.904 161.879 392.875 162.982 C 397.659 164.311 425.576 164.297 428.066 162.965 C 429.667 162.108 430 160.834 430 155.572 C 430 150.697 429.631 149.072 428.418 148.607 C 427.548 148.273 421.534 148 415.053 148 C 404.763 148 402.946 147.745 400.713 145.989 C 397.918 143.791 394.389 135.798 395.453 134.077 C 395.887 133.374 402.171 133 413.524 133 C 434.468 133 433.421 133.781 432.807 118.613 C 432.344 107.159 430.44 101.683 424.323 94.219 C 418.349 86.928 416.04 85.987 404.5 86.14 C 399 86.213 393.528 86.462 392.34 86.694 M 345.544 103.072 C 346.339 104.357 346.161 144.416 345.352 146.525 C 344.945 147.587 343.204 147.996 339.143 147.985 C 336.039 147.976 333 147.639 332.39 147.235 C 329.331 145.211 326 133.828 326 125.398 C 326 118.903 328.809 107.512 331.142 104.546 C 332.882 102.335 333.917 102 339.014 102 C 342.241 102 345.18 102.482 345.544 103.072 M 411.632 105.773 C 413.95 109.223 415.607 116.209 414.523 117.963 C 414.146 118.572 409.555 119 403.396 119 L 392.909 119 L 393.581 115.25 C 394.357 110.925 396.529 105.272 398.183 103.28 C 398.943 102.363 401.003 102.005 404.377 102.203 C 408.822 102.464 409.698 102.895 411.632 105.773 M 82.95 105.093 C 80.873 108.974 82.633 111.443 91.979 117.769 C 101.326 124.096 101.729 124.225 116.25 125.545 C 119.963 125.883 123 126.573 123 127.08 C 123 128.292 122.607 128.27 110.471 126.38 C 103.54 125.3 97.891 124.993 93.545 125.458 C 83.087 126.578 84.769 127.99 96.691 128.1 C 102.636 128.155 108.625 128.56 110 129 C 113.014 129.965 112.912 129.982 101.155 130.432 C 96.015 130.629 91.314 131.286 90.707 131.893 C 89.904 132.696 93.973 132.928 105.707 132.748 C 114.563 132.611 121.601 132.838 121.346 133.25 C 121.091 133.662 119.307 134 117.383 134 C 111.516 134 99.649 136.131 97 137.66 C 94.612 139.038 94.701 139.077 99 138.531 C 101.475 138.217 107.489 137.549 112.364 137.047 C 119.204 136.343 121.746 135.647 123.497 134.002 L 125.767 131.87 L 130.657 134.601 C 136.269 137.734 139.643 137.448 143.586 133.505 C 149.058 128.033 145.353 123 135.854 123 C 131.233 123 129.591 123.473 127.183 125.499 C 124.892 127.427 124.091 127.68 123.679 126.606 C 123.385 125.84 124.273 124.153 125.653 122.856 C 127.851 120.792 129.139 120.5 136.061 120.5 C 143.193 120.5 144.189 120.743 146.314 123 C 148.291 125.1 148.541 126.06 147.876 129 C 146.652 134.407 149.05 136.175 158.423 136.777 C 168.393 137.417 168.666 135.399 158.75 134.366 C 150.923 133.551 151.062 133.446 161.25 132.481 C 164.962 132.129 168 131.364 168 130.781 C 168 130.097 166.103 129.916 162.665 130.271 C 159.73 130.574 156.693 130.419 155.915 129.926 C 154.995 129.344 156.776 129.02 161 129 C 164.575 128.983 168.175 128.542 169 128.02 C 171.289 126.57 170.789 116.591 168.126 110.608 C 165.117 103.845 166.059 103.786 169.468 110.524 C 171.948 115.426 172.209 116.832 171.773 122.929 C 171.382 128.393 170.549 131.109 167.718 136.153 C 159.954 149.982 150.003 155 130.345 155 C 108.305 155 92.238 144.868 83.292 125.327 C 80.339 118.877 79.555 107.468 81.872 104.662 C 83.766 102.369 84.295 102.58 82.95 105.093 M 120.43 108.922 C 121.387 109.98 122.403 112.586 122.688 114.714 C 123.373 119.816 121.456 121.404 114.738 121.303 C 108.673 121.211 107 119.545 107 113.597 L 107 109.576 L 109.25 114.038 C 111.567 118.632 113.386 119.622 117.579 118.57 C 121.975 117.466 119.375 109.281 114.5 108.875 C 111.676 108.64 111.166 108.499 110.417 107.75 C 110.004 107.338 111.697 107 114.178 107 C 117.359 107 119.203 107.567 120.43 108.922 M 159.171 109.655 C 161.291 111.573 161.704 118.896 159.8 120.8 C 158.328 122.272 150.578 122.38 147.934 120.965 C 146.487 120.19 146.004 118.868 146.015 115.715 C 146.024 113.397 146.467 110.825 147 110 C 147.702 108.914 147.974 109.802 147.985 113.215 C 148.001 118.302 149.565 120 154.234 120 C 161.228 120 159.934 111.22 152.698 109.573 C 150.15 108.993 149.991 109.114 150.948 110.902 C 151.526 111.984 152 113.434 152 114.125 C 152 116.063 149.068 111.741 149.032 109.75 C 148.989 107.371 156.569 107.3 159.171 109.655 M 115 112.091 C 116.118 112.723 115.831 112.947 113.872 112.97 C 112.427 112.986 110.631 112.26 109.88 111.356 C 108.659 109.884 108.777 109.792 111.008 110.477 C 112.379 110.898 114.175 111.624 115 112.091 M 192.157 127.99 C 193.86 128.713 192.587 128.82 187.5 128.381 C 183.65 128.048 180.05 127.319 179.5 126.76 C 178.264 125.505 188.688 126.517 192.157 127.99 M 118.5 130 C 118.16 130.55 116.671 130.947 115.191 130.882 L 112.5 130.763 L 115.5 130 C 117.15 129.58 118.639 129.183 118.809 129.118 C 118.979 129.053 118.84 129.45 118.5 130 M 188.75 133.695 C 190.537 134.007 192 134.683 192 135.198 C 192 135.713 191.213 135.896 190.25 135.605 C 189.287 135.313 186.552 134.648 184.172 134.126 C 181.792 133.604 179.542 132.848 179.172 132.445 C 178.802 132.042 180.075 132.031 182 132.421 C 183.925 132.81 186.963 133.384 188.75 133.695 M 179.851 139.098 C 181.583 139.702 183 140.602 183 141.098 C 183 142.231 182.954 142.228 179.149 140.902 C 177.417 140.298 176 139.398 176 138.902 C 176 137.769 176.046 137.772 179.851 139.098 M 130 141.084 C 128.625 141.679 124.86 141.983 121.633 141.76 C 116.58 141.412 116.017 141.539 117.574 142.678 C 120.195 144.594 126.367 144.68 133.251 142.895 C 135.841 142.223 138.799 142.293 142.801 143.12 C 146.331 143.849 149.753 143.99 151.55 143.481 C 154.376 142.68 154.289 142.611 149.5 141.842 C 139.863 140.296 132.486 140.009 130 141.084" stroke-linecap="round" />
</g>
<g transform="matrix(1 0 0 1 30.98 97.31)"  >
<line style="stroke: rgb(0,0,0); stroke-width: 2; stroke-dasharray: none; stroke-linecap: butt; stroke-dashoffset: 0; stroke-linejoin: miter; stroke-miterlimit: 4; fill: rgb(0,0,0); fill-rule: nonzero; opacity: 1;"  x1="0" y1="0" x2="0" y2="0" />
</g>
<g transform="matrix(1 0 0 1 66.97 101.3)"  >
<line style="stroke: rgb(0,0,0); stroke-width: 2; stroke-dasharray: none; stroke-linecap: butt; stroke-dashoffset: 0; stroke-linejoin: miter; stroke-miterlimit: 4; fill: rgb(0,0,0); fill-rule: nonzero; opacity: 1;"  x1="0" y1="0" x2="0" y2="0" />
</g>
<g transform="matrix(1 0 0 1 234.93 95.31)"  >
<line style="stroke: rgb(0,0,0); stroke-width: 2; stroke-dasharray: none; stroke-linecap: butt; stroke-dashoffset: 0; stroke-linejoin: miter; stroke-miterlimit: 4; fill: rgb(0,0,0); fill-rule: nonzero; opacity: 1;"  x1="0" y1="0" x2="0" y2="0" />
</g>
<g transform="matrix(1 0 0 1 -49 109.28)"  >
<line style="stroke: rgb(0,0,0); stroke-width: 2; stroke-dasharray: none; stroke-linecap: butt; stroke-dashoffset: 0; stroke-linejoin: miter; stroke-miterlimit: 4; fill: rgb(0,0,0); fill-rule: nonzero; opacity: 1;" vector-effect="non-scaling-stroke"  x1="0" y1="0" x2="0" y2="0" />
</g>
</svg>